<?xml version="1.0" standalone="no"?>
<!DOCTYPE svg PUBLIC "-//W3C//DTD SVG 20010904//EN"
 "http://www.w3.org/TR/2001/REC-SVG-20010904/DTD/svg10.dtd">
<svg version="1.0" xmlns="http://www.w3.org/2000/svg"
 width="1536.000000pt" height="1024.000000pt" viewBox="0 0 1536.000000 1024.000000"
 preserveAspectRatio="xMidYMid meet">

<g transform="translate(0.000000,1024.000000) scale(0.100000,-0.100000)"
fill="#000000" stroke="none">
<path d="M0 5120 l0 -5120 7680 0 7680 0 0 5120 0 5120 -7680 0 -7680 0 0
-5120z m7057 3698 c56 -19 128 -50 159 -69 469 -282 554 -915 176 -1312 -43
-45 -129 -116 -159 -132 -1 -1 12 -37 29 -81 17 -43 59 -158 93 -254 l63 -174
6 54 c3 30 8 89 11 130 18 214 85 415 190 574 49 74 178 211 270 286 146 120
414 274 465 268 l25 -3 3 -125 c11 -420 -104 -775 -320 -992 -124 -124 -310
-228 -511 -285 -78 -22 -96 -30 -91 -43 14 -35 63 -245 89 -382 l27 -148 27 8
c53 14 154 7 196 -15 104 -55 157 -167 135 -285 -6 -29 -22 -70 -35 -90 l-25
-38 27 0 c49 0 129 45 162 90 60 84 64 158 16 300 -14 41 -28 99 -32 129 -5
44 -12 60 -36 80 -16 14 -38 43 -48 66 -58 128 33 275 171 275 22 0 40 4 40 9
0 23 96 133 143 163 66 44 178 91 205 86 19 -3 17 -7 -19 -68 -49 -80 -69
-146 -69 -225 0 -153 85 -271 260 -360 87 -45 114 -64 178 -127 69 -67 104
-137 132 -263 28 -127 61 -197 119 -254 106 -102 233 -128 349 -70 90 44 131
101 160 220 l18 71 56 -46 c140 -114 274 -352 294 -521 6 -48 4 -53 -25 -82
-88 -88 -425 -135 -1161 -164 -343 -13 -1360 -7 -1605 10 -235 17 -581 51
-675 67 -97 17 -190 42 -190 51 0 3 26 31 58 62 31 31 86 86 121 122 l63 67
-138 -24 c-167 -30 -278 -57 -358 -90 -74 -30 -96 -49 -96 -84 0 -84 349 -168
915 -219 480 -44 543 -46 1255 -46 920 1 1327 25 1790 106 308 54 452 117 418
183 -20 37 -252 116 -341 116 -14 0 -29 5 -32 10 -8 14 52 4 175 -26 113 -29
198 -68 211 -98 11 -23 -14 -107 -106 -361 -31 -86 -35 -110 -33 -172 2 -39 6
-74 9 -78 3 -3 44 13 90 35 201 96 373 105 468 24 46 -40 64 -86 63 -164 -2
-164 -120 -333 -291 -420 l-58 -29 33 -121 c87 -318 64 -574 -76 -855 -124
-249 -323 -462 -605 -648 -49 -32 -89 -64 -88 -71 1 -6 23 -104 49 -218 29
-130 44 -217 40 -233 -12 -47 -116 -73 -162 -40 -12 8 -59 78 -104 157 -46 79
-92 155 -101 169 l-18 26 -110 -43 c-238 -95 -538 -169 -801 -199 -187 -22
-690 -16 -875 9 -275 38 -560 110 -767 194 l-97 39 -101 -173 c-55 -95 -108
-175 -116 -178 -37 -14 -112 -6 -139 16 -33 26 -33 32 25 282 22 96 40 179 40
184 0 6 -46 41 -102 78 -400 261 -634 570 -714 944 -20 96 -20 287 1 403 8 49
31 136 49 193 l34 104 -58 31 c-66 35 -156 117 -192 175 -44 69 -70 154 -71
229 -2 97 29 152 108 190 51 25 62 27 148 23 105 -5 200 -35 338 -106 13 -6
31 100 25 139 -4 22 -29 100 -56 174 -70 189 -92 272 -79 297 30 56 316 140
580 171 22 3 59 22 98 50 64 47 148 91 234 122 64 23 126 71 150 117 58 114 6
345 -98 426 -14 11 -25 23 -25 26 0 3 26 3 58 0 156 -17 269 -63 378 -155 36
-30 60 -45 62 -37 2 7 12 34 24 59 l20 46 -32 179 c-18 98 -34 181 -36 183 -2
2 -27 -7 -56 -19 -94 -41 -240 -80 -361 -97 -102 -14 -135 -15 -228 -5 -222
25 -428 117 -608 272 -103 89 -313 336 -309 363 2 18 19 27 83 49 153 50 294
72 470 72 177 1 276 -14 421 -64 97 -33 150 -62 249 -136 76 -56 214 -192 267
-261 17 -23 34 -41 36 -38 6 6 -60 200 -155 460 -47 127 -86 231 -87 232 -1 2
-26 -6 -54 -17 -89 -34 -226 -53 -332 -47 -208 13 -372 84 -522 226 -134 127
-218 276 -253 450 -24 116 -16 307 15 406 92 289 317 502 607 575 63 16 105
19 223 17 137 -3 151 -5 247 -39z"/>
<path d="M6678 8730 c-181 -33 -327 -115 -443 -251 -94 -109 -165 -302 -165
-447 0 -101 28 -220 75 -317 90 -187 223 -304 425 -375 88 -31 284 -39 383
-16 259 61 455 254 528 520 30 113 24 296 -14 407 -60 175 -182 319 -342 401
-49 25 -117 53 -150 62 -72 20 -232 28 -297 16z m613 -277 c13 -16 12 -17 -3
-4 -10 7 -18 15 -18 17 0 8 8 3 21 -13z m-332 -22 c34 -11 78 -31 97 -46 45
-34 91 -106 106 -162 9 -38 14 -43 40 -43 l29 0 -3 -87 -3 -88 -37 -3 c-26 -2
-39 -9 -43 -22 -16 -50 -85 -119 -152 -152 -64 -31 -75 -33 -192 -37 l-124 -3
7 -129 6 -129 -110 0 -110 0 0 235 0 235 -50 0 -50 0 0 90 0 90 51 0 52 0 -7
135 -7 135 220 0 c187 0 228 -3 280 -19z"/>
<path d="M6680 8117 l0 -143 84 2 c132 4 186 46 186 147 0 104 -43 137 -180
137 l-90 0 0 -143z"/>
<path d="M8175 7942 c-77 -41 -213 -133 -239 -161 -14 -15 -16 -39 -14 -147
l3 -129 109 160 c61 88 134 193 164 233 29 41 52 75 50 77 -2 2 -35 -13 -73
-33z"/>
<path d="M8235 7828 c-80 -105 -263 -362 -261 -365 1 -1 46 9 101 23 117 28
201 60 209 79 13 36 27 180 24 263 l-3 93 -70 -93z"/>
<path d="M7777 7633 c-106 -119 -138 -168 -131 -201 3 -15 8 -92 12 -172 l7
-145 103 153 102 153 -1 122 c-1 67 -4 134 -8 150 -6 27 -8 26 -84 -60z"/>
<path d="M8085 7414 c-71 -13 -140 -28 -152 -34 -20 -8 -247 -339 -239 -347 2
-2 71 19 155 46 84 27 176 55 204 61 29 7 57 14 64 16 13 3 118 213 129 257 8
33 11 33 -161 1z"/>
<path d="M7581 7335 c-29 -68 -62 -205 -77 -317 -24 -184 -20 -190 50 -75 l59
98 -10 162 c-8 145 -10 159 -22 132z"/>
<path d="M7840 7012 c-102 -32 -191 -61 -199 -66 -16 -10 -124 -176 -118 -182
6 -6 135 40 219 79 43 19 110 58 150 86 80 55 171 142 148 140 -8 0 -98 -26
-200 -57z"/>
<path d="M6170 6974 c-106 -20 -178 -41 -160 -47 8 -2 55 -10 104 -16 53 -7
169 -38 291 -76 112 -36 208 -65 215 -65 6 0 -35 50 -91 110 l-103 110 -91 -1
c-49 0 -124 -7 -165 -15z"/>
<path d="M6547 6944 c23 -27 77 -87 120 -133 l78 -83 120 -44 c66 -23 121 -42
122 -40 2 1 -24 60 -57 130 -54 113 -65 129 -96 142 -53 22 -207 62 -271 70
l-57 7 41 -49z"/>
<path d="M6001 6828 c13 -18 71 -82 130 -142 l106 -110 69 26 c38 14 118 45
177 69 l108 44 -58 18 c-184 56 -482 127 -534 127 -20 0 -20 0 2 -32z"/>
<path d="M6960 6846 c0 -16 106 -223 119 -231 24 -15 203 -77 207 -72 8 7
-173 192 -244 251 -62 50 -82 63 -82 52z"/>
<path d="M6621 6649 c-30 -10 -102 -41 -162 -69 -59 -27 -112 -50 -118 -50
-53 0 100 -84 227 -125 l82 -27 29 24 c15 13 87 58 159 99 72 41 132 76 132
79 0 8 -253 90 -275 89 -11 0 -44 -9 -74 -20z"/>
<path d="M6921 6475 c-62 -40 -123 -83 -135 -94 l-20 -21 83 0 c45 0 127 9
182 20 94 19 235 64 252 80 8 7 -209 91 -234 89 -8 0 -65 -34 -128 -74z"/>
<path d="M8733 6138 c45 -72 64 -124 93 -252 36 -161 80 -225 185 -261 l44
-16 -37 31 c-49 41 -72 94 -102 233 -27 123 -47 173 -93 227 -28 34 -100 90
-114 90 -5 0 6 -24 24 -52z"/>
<path d="M5726 4604 c-36 -36 -14 -95 62 -167 46 -43 156 -107 165 -96 12 13
99 181 96 183 -14 13 -100 50 -163 71 -86 29 -138 32 -160 9z"/>
<path d="M10523 4605 c-29 -8 -84 -30 -123 -50 l-71 -36 48 -89 c26 -50 54
-90 61 -90 27 0 131 63 177 107 127 121 79 204 -92 158z"/>
</g>
</svg>
