<?xml version="1.0" standalone="no"?>
<!DOCTYPE svg PUBLIC "-//W3C//DTD SVG 20010904//EN"
 "http://www.w3.org/TR/2001/REC-SVG-20010904/DTD/svg10.dtd">
<svg version="1.0" xmlns="http://www.w3.org/2000/svg"
 width="1080.000000pt" height="720.000000pt" viewBox="0 0 1080.000000 720.000000"
 preserveAspectRatio="xMidYMid meet">
<metadata>
Created by potrace 1.16, written by Peter Selinger 2001-2019
</metadata>
<g transform="translate(0.000000,720.000000) scale(0.100000,-0.100000)"
fill="#000000" stroke="none">
<path d="M0 3600 l0 -3600 5400 0 5400 0 0 3600 0 3600 -5400 0 -5400 0 0
-3600z m4960 2610 c82 -32 121 -51 160 -79 39 -28 160 -151 160 -163 0 -5 10
-25 23 -46 78 -125 94 -341 37 -487 -19 -49 -69 -144 -70 -133 0 3 -30 -25
-67 -64 -38 -38 -80 -77 -94 -85 l-26 -16 34 -91 c48 -128 61 -156 73 -156 5
0 10 -12 10 -27 0 -43 8 -22 13 37 6 63 15 106 27 135 15 36 40 123 40 139 0
19 40 98 54 108 6 4 7 8 3 8 -15 0 36 63 113 140 79 79 206 180 228 180 6 0
12 4 12 8 0 14 169 94 192 90 23 -3 23 -3 21 -163 -4 -222 -40 -368 -131 -519
-49 -82 -148 -181 -219 -220 -21 -12 -40 -24 -43 -28 -6 -8 -111 -49 -195 -76
-27 -9 -51 -17 -53 -18 -1 -1 6 -35 16 -75 24 -92 52 -237 52 -266 0 -20 4
-21 58 -16 94 9 179 -46 198 -128 11 -46 5 -121 -11 -145 -15 -23 -14 -24 6
-24 51 0 119 85 119 148 0 16 -8 55 -19 88 -10 32 -21 78 -24 101 -3 29 -14
52 -35 72 -32 33 -50 107 -34 138 6 10 9 20 9 23 -7 25 85 90 128 90 14 0 26
7 29 18 10 30 90 99 142 123 27 12 57 26 66 30 41 21 71 0 44 -30 -9 -10 -16
-22 -16 -28 0 -6 -3 -13 -7 -15 -14 -6 -43 -103 -43 -143 0 -22 7 -53 15 -69
8 -15 15 -33 15 -40 1 -13 87 -99 110 -109 8 -4 22 -11 30 -16 8 -5 28 -15 44
-22 44 -21 134 -106 150 -143 21 -46 46 -127 46 -147 0 -26 36 -104 62 -134
38 -44 117 -85 166 -85 98 0 184 86 194 195 2 24 7 29 23 26 24 -4 138 -122
160 -165 9 -17 20 -38 25 -46 6 -8 19 -36 30 -63 11 -26 25 -49 32 -51 7 -2
36 -8 63 -14 86 -18 122 -29 170 -52 45 -22 47 -24 42 -59 -4 -32 -12 -59 -38
-126 -47 -124 -59 -166 -59 -218 l0 -57 33 18 c17 10 55 25 82 34 139 46 231
39 291 -23 27 -29 29 -35 29 -112 -1 -98 -10 -121 -90 -213 -19 -23 -60 -55
-90 -70 -30 -16 -55 -32 -55 -36 0 -4 7 -33 16 -65 22 -80 44 -209 44 -263 0
-148 -75 -356 -183 -500 -48 -65 -185 -203 -242 -245 -22 -16 -42 -32 -45 -36
-3 -3 -18 -13 -35 -22 -16 -9 -40 -25 -53 -35 l-24 -18 17 -80 c10 -43 22 -97
27 -119 6 -22 12 -61 15 -86 4 -40 2 -49 -18 -63 -13 -9 -42 -16 -65 -16 -41
0 -43 2 -83 65 -23 35 -41 68 -41 71 0 4 -10 21 -23 38 -12 17 -29 43 -36 58
-9 18 -18 25 -25 19 -6 -5 -31 -15 -56 -22 -25 -7 -50 -16 -55 -20 -22 -16
-163 -56 -345 -98 -226 -52 -625 -52 -900 0 -159 30 -287 65 -414 113 -75 28
-86 31 -86 17 0 -15 -122 -215 -139 -228 -22 -17 -72 -16 -99 3 -29 20 -29 68
-1 195 35 161 35 157 8 169 -45 20 -197 130 -225 162 -6 7 -20 20 -30 29 -40
33 -119 127 -159 189 -84 129 -117 214 -137 350 -10 69 -3 245 12 295 45 154
46 157 8 180 -52 30 -115 93 -144 143 -32 54 -44 166 -25 225 13 39 67 73 133
83 41 7 147 -17 222 -50 l56 -25 6 25 c10 38 -2 103 -31 167 -25 57 -65 193
-65 221 0 17 86 60 165 81 33 9 71 21 85 26 14 5 44 10 68 11 23 1 42 5 42 9
0 4 18 7 39 7 28 1 53 11 88 34 26 19 66 42 88 52 22 11 48 23 57 27 10 5 25
9 33 9 8 0 15 4 15 8 0 5 11 14 25 20 92 42 85 230 -11 325 -18 17 -30 35 -28
39 20 32 255 -32 272 -74 2 -4 9 -8 15 -8 6 0 21 -9 33 -21 28 -26 41 -19 50
26 6 34 -20 196 -37 227 -12 23 -12 31 1 23 6 -3 10 2 10 11 0 16 -2 15 -22
-3 -33 -29 -138 -61 -281 -83 -107 -18 -272 6 -354 49 -10 5 -40 19 -67 31
-45 20 -126 74 -184 124 -53 45 -202 227 -202 245 0 24 24 38 95 58 155 44
343 55 485 29 120 -23 169 -42 241 -93 26 -18 50 -33 54 -33 3 0 19 -12 35
-27 16 -16 50 -48 75 -72 38 -37 45 -40 45 -23 0 12 -4 23 -9 26 -4 3 -6 16
-4 28 3 14 -4 33 -16 47 -12 13 -21 33 -21 44 0 28 -60 188 -77 205 -8 8 -20
11 -31 6 -80 -34 -269 -31 -388 7 -90 28 -244 128 -244 158 0 6 -4 11 -10 11
-10 0 -50 56 -85 119 -43 77 -74 198 -75 290 0 59 23 173 39 196 4 6 13 29 21
53 7 23 17 42 22 42 4 0 8 6 8 14 0 33 213 226 249 226 4 0 30 9 56 21 69 30
127 39 240 34 70 -3 117 -11 155 -25z"/>
<path d="M4673 6135 c-239 -52 -403 -252 -403 -489 0 -217 125 -400 328 -479
79 -31 271 -32 347 -2 76 29 115 54 168 104 112 106 159 214 161 366 0 119
-18 187 -73 272 -76 117 -196 200 -330 229 -80 17 -117 17 -198 -1z m222 -206
c53 -15 131 -94 141 -143 4 -26 11 -36 25 -36 17 0 19 -8 19 -60 0 -56 -2 -60
-22 -60 -16 0 -32 -15 -55 -49 -47 -71 -111 -101 -220 -101 l-83 0 0 -95 0
-96 -72 3 -73 3 -3 168 -2 167 -35 0 -35 0 0 60 0 60 36 0 37 0 -6 95 -5 95
156 0 c86 0 175 -5 197 -11z"/>
<path d="M4700 5710 l0 -100 60 0 c38 0 70 6 84 15 54 35 58 126 9 165 -20 15
-40 20 -89 20 l-64 0 0 -100z"/>
<path d="M5744 5583 c-27 -14 -77 -45 -111 -70 l-63 -44 0 -97 c0 -53 4 -92 8
-86 5 5 44 61 87 124 43 63 92 132 108 153 16 21 27 40 25 42 -2 3 -26 -7 -54
-22z"/>
<path d="M5808 5532 c-14 -20 -65 -91 -112 -156 -47 -66 -86 -122 -86 -126 0
-10 170 38 197 56 15 9 24 27 27 56 9 68 14 208 7 208 -3 -1 -18 -17 -33 -38z"/>
<path d="M5463 5362 c-94 -109 -92 -104 -81 -197 6 -44 11 -88 11 -97 2 -37
25 -18 92 77 l46 63 -3 114 -3 113 -62 -73z"/>
<path d="M5657 5210 c-70 -14 -92 -23 -105 -41 -43 -60 -143 -221 -140 -224 3
-4 275 82 297 93 16 9 76 123 86 165 7 25 5 27 -21 26 -16 -1 -69 -9 -117 -19z"/>
<path d="M5326 5154 c-3 -9 -4 -20 -1 -25 3 -4 -1 -21 -9 -37 -20 -39 -47
-173 -44 -226 l1 -45 27 42 c14 23 30 51 34 62 13 31 18 128 8 155 -5 13 -6
39 -2 57 8 33 -3 46 -14 17z"/>
<path d="M5390 5024 c0 -8 5 -12 10 -9 6 3 10 10 10 16 0 5 -4 9 -10 9 -5 0
-10 -7 -10 -16z"/>
<path d="M5585 4955 c-22 -8 -80 -26 -128 -41 -88 -27 -88 -27 -128 -87 -21
-34 -39 -65 -39 -69 0 -10 111 32 194 73 75 37 193 138 161 138 -11 0 -38 -7
-60 -14z"/>
<path d="M4326 4904 c-103 -19 -124 -30 -71 -38 86 -14 145 -28 263 -66 68
-22 128 -40 134 -40 5 0 -23 36 -63 80 l-72 80 -56 -1 c-31 -1 -92 -8 -135
-15z"/>
<path d="M4580 4913 c0 -4 37 -48 83 -97 79 -84 86 -89 166 -117 46 -16 86
-29 88 -29 1 0 -18 43 -44 95 l-47 95 -66 19 c-36 11 -83 23 -105 26 -22 4
-48 9 -57 12 -10 2 -18 1 -18 -4z"/>
<path d="M4209 4813 c5 -10 45 -56 89 -102 91 -96 86 -96 215 -41 40 17 83 36
97 42 23 9 17 13 -70 39 -52 16 -140 38 -195 49 -55 11 -110 23 -123 26 -20 4
-22 2 -13 -13z"/>
<path d="M4891 4813 c0 -4 19 -44 42 -87 l42 -79 78 -28 c42 -15 77 -24 77
-20 0 4 -44 50 -99 103 -92 90 -142 129 -140 111z"/>
<path d="M4612 4658 c-41 -17 -95 -41 -120 -53 l-46 -22 28 -18 c15 -10 66
-33 113 -51 l86 -32 46 33 c25 18 73 47 106 65 33 18 64 35 69 38 5 2 1 9 -8
14 -30 17 -159 58 -180 58 -12 0 -54 -15 -94 -32z"/>
<path d="M5652 4640 c-34 -25 -42 -36 -48 -76 -8 -58 12 -101 65 -139 43 -29
56 -30 102 -11 51 22 81 58 86 109 14 122 -105 190 -205 117z"/>
<path d="M5160 4631 c0 -6 5 -13 10 -16 6 -3 10 1 10 9 0 9 -4 16 -10 16 -5 0
-10 -4 -10 -9z"/>
<path d="M4864 4551 c-50 -32 -95 -64 -98 -70 -9 -14 81 -15 155 -1 62 12 190
50 202 60 6 6 -65 36 -158 67 -5 1 -51 -24 -101 -56z"/>
<path d="M5377 4314 c-2 -3 -19 -6 -36 -9 -51 -6 -74 -28 -100 -93 -25 -65
-25 -136 1 -168 46 -54 109 -93 154 -94 54 0 118 42 161 107 24 37 20 135 -8
175 -34 49 -58 67 -98 74 -20 4 -43 8 -53 10 -9 1 -18 0 -21 -2z"/>
<path d="M6160 4307 c0 -2 8 -21 19 -43 10 -21 26 -75 36 -119 10 -44 23 -89
28 -100 13 -27 48 -65 60 -65 5 0 3 10 -5 23 -8 12 -23 56 -32 97 -27 120 -38
148 -66 180 -23 26 -40 37 -40 27z"/>
<path d="M5483 3860 c-63 -15 -120 -53 -198 -134 -85 -88 -137 -116 -216 -116
-46 0 -130 21 -190 47 -95 42 -113 46 -198 45 -109 -1 -123 -4 -137 -31 -8
-16 -14 -19 -19 -11 -5 7 15 35 51 71 32 32 56 60 53 62 -8 8 -273 -51 -330
-72 -31 -12 -64 -30 -74 -41 -17 -19 -17 -21 1 -41 105 -116 913 -191 1822
-169 465 11 666 26 912 66 259 42 375 95 330 150 -14 16 -150 59 -219 68 l-44
7 7 -42 c6 -37 3 -46 -21 -71 -14 -15 -32 -28 -37 -28 -6 0 0 9 13 19 34 26
13 32 -50 16 -30 -8 -87 -15 -128 -15 -64 0 -84 5 -147 35 -130 63 -193 64
-320 5 -170 -78 -370 -53 -508 64 -70 59 -135 99 -152 92 -8 -3 -13 -2 -10 3
14 22 -123 37 -191 21z m-993 -230 c-12 -8 -12 -10 4 -10 11 0 17 -3 13 -6 -3
-4 -14 -4 -23 0 -13 5 -14 9 -4 21 7 9 15 13 19 10 3 -3 -1 -10 -9 -15z m80
-30 c20 -6 21 -8 5 -8 -11 0 -29 3 -40 8 -25 11 1 11 35 0z m2350 1 c-19 -11
-179 -35 -186 -29 -3 3 30 11 72 17 43 6 80 14 83 16 2 3 14 5 25 5 17 -1 18
-2 6 -9z m-2252 -18 c-10 -2 -28 -2 -40 0 -13 2 -5 4 17 4 22 1 32 -1 23 -4z
m65 -10 c-7 -2 -21 -2 -30 0 -10 3 -4 5 12 5 17 0 24 -2 18 -5z m246 -19 c8
-7 -104 -2 -134 6 -18 5 3 6 50 3 44 -3 82 -7 84 -9z m1661 5 c-25 -4 -70 -7
-100 -7 l-55 1 60 7 c33 4 78 7 100 7 l40 0 -45 -8z m-1517 -16 c-18 -2 -48
-2 -65 0 -18 2 -4 4 32 4 36 0 50 -2 33 -4z m1290 0 c-24 -2 -62 -2 -85 0 -24
2 -5 4 42 4 47 0 66 -2 43 -4z m-348 -15 c-175 -7 -562 -7 -720 1 -60 3 111 6
380 6 307 0 434 -2 340 -7z"/>
<path d="M4028 3239 c-26 -15 -22 -40 12 -87 25 -35 118 -102 142 -102 4 0 22
28 39 61 37 74 34 78 -67 114 -76 27 -100 30 -126 14z"/>
<path d="M7370 3227 c-36 -13 -75 -30 -87 -37 l-22 -14 31 -56 c17 -30 34 -59
38 -63 13 -15 98 33 140 79 41 44 50 80 28 102 -18 18 -55 14 -128 -11z"/>
</g>
</svg>
